<svg width="144" height="125" viewBox="0 0 144 125" fill="none" xmlns="http://www.w3.org/2000/svg">
<rect x="1.25819" y="0.64532" width="57.4265" height="93.6833" rx="7" transform="matrix(0.951839 -0.306599 0.30635 0.951919 -0.137098 31.0933)" fill="#100909" stroke="black" stroke-width="2"/>
<path d="M29.9823 68.9565L36.9883 45.0479L55.9281 60.9051L49.3954 85.0656L29.9823 68.9565Z" fill="#050404"/>
<path d="M111.279 78.1641L89.6563 90.5245L87.0074 65.9589L108.464 53.0887L111.279 78.1641Z" fill="#050404"/>
<rect x="-0.730939" y="-1.9918" width="56.4287" height="92.6797" rx="6.5" transform="matrix(-0.907352 -0.420371 0.42006 -0.907496 103.251 120.295)" fill="black" stroke="#F4F4F4" stroke-width="3"/>
<path d="M79.151 61.1008L99.8394 47.2317L104.23 71.5463L83.7432 85.9121L79.151 61.1008Z" fill="#050404"/>
<rect x="34.3906" y="1" width="65.3472" height="101.614" rx="7" fill="#447EED" stroke="#F4F4F4" stroke-width="2"/>
<path d="M53.7646 51.3335L67.5359 30.5746L80.9298 51.3335L67.5359 72.4732L53.7646 51.3335Z" fill="white"/>
<path d="M41.8798 20.6224L45.0357 15.8535L48.1051 20.6224L45.0357 25.4789L41.8798 20.6224Z" fill="white"/>
<path d="M45.7626 12.4309H44.1185L43.8314 13.3606H42.5497L44.3749 8.384H45.5028L47.3417 13.3606H46.0531L45.7626 12.4309ZM44.4056 11.5046H45.4755L44.9388 9.77853L44.4056 11.5046Z" fill="white"/>
<path d="M92.8146 82.9916L89.6587 87.7606L86.5893 82.9916L89.6587 78.1352L92.8146 82.9916Z" fill="white"/>
<path d="M88.9318 91.1832L90.5759 91.1832L90.863 90.2535L92.1447 90.2535L90.3195 95.2301L89.1916 95.2301L87.3527 90.2535L88.6413 90.2535L88.9318 91.1832ZM90.2888 92.1095L89.2189 92.1095L89.7556 93.8356L90.2888 92.1095Z" fill="white"/>
</svg>
